<?xml version="1.0" standalone="no"?>
<!DOCTYPE svg PUBLIC "-//W3C//DTD SVG 20010904//EN"
 "http://www.w3.org/TR/2001/REC-SVG-20010904/DTD/svg10.dtd">
<svg version="1.0" xmlns="http://www.w3.org/2000/svg"
 width="767.000000pt" height="743.000000pt" viewBox="0 0 767.000000 743.000000"
 preserveAspectRatio="xMidYMid meet">

<g transform="translate(0.000000,743.000000) scale(0.100000,-0.100000)"
fill="#000000" stroke="none">
<path d="M2855 6630 c-105 -17 -211 -48 -291 -84 -650 -301 -794 -1152 -277
-1647 81 -78 137 -117 243 -170 109 -55 179 -78 290 -94 218 -34 423 -3 615
92 462 229 673 783 485 1271 -33 85 -90 186 -105 185 -32 -1 -314 -471 -498
-833 -138 -271 -148 -287 -193 -306 -40 -17 -227 -19 -270 -3 -33 12 -43 26
-209 269 -65 96 -140 200 -165 230 -65 76 -83 114 -75 157 9 48 71 106 140
132 147 55 244 1 386 -214 45 -69 87 -125 93 -125 6 0 20 17 31 37 23 44 155
280 222 398 25 44 106 171 179 282 74 111 134 206 134 212 0 23 -141 109 -248
151 -147 57 -348 81 -487 60z"/>
<path d="M1235 6280 c-6 -10 -5 -1550 1 -1550 1 0 45 27 96 61 317 207 447
296 452 307 3 7 -3 32 -13 55 -18 41 -37 107 -68 237 -23 98 -23 381 0 485 33
145 85 287 134 367 19 31 20 37 7 42 -28 11 -602 7 -609 -4z"/>
<path d="M4116 6282 c-3 -5 10 -38 29 -73 42 -80 88 -209 112 -314 25 -116 25
-418 0 -530 -118 -511 -474 -874 -987 -1006 -113 -29 -367 -37 -490 -15 -195
35 -375 106 -527 207 -69 47 -175 138 -219 190 -13 14 -38 43 -58 65 -19 21
-45 56 -58 76 -13 21 -31 40 -40 43 -11 4 -91 -44 -230 -137 -117 -78 -221
-147 -230 -153 -9 -5 -55 -35 -102 -65 l-85 -55 -1 -1782 0 -1783 240 0 239 0
3 137 3 138 255 6 c229 5 261 8 311 28 72 27 127 75 164 142 29 52 30 59 33
209 2 85 8 157 13 160 17 11 258 11 278 0 20 -10 21 -19 21 -138 -1 -374 -129
-593 -389 -663 l-66 -17 358 -1 357 -1 0 135 0 135 140 0 140 0 0 -135 0 -135
199 0 199 0 7 36 c3 20 11 44 16 53 5 9 36 86 68 171 105 276 122 323 163 430
22 58 45 111 50 118 8 9 161 12 704 12 l694 0 16 -38 c20 -47 107 -273 215
-559 l84 -222 93 -1 92 0 0 135 0 135 140 0 140 0 0 -135 0 -135 244 0 244 0
0 2646 c1 1610 -3 2655 -8 2670 l-10 24 -1279 0 c-704 0 -1282 -4 -1285 -8z
m2089 -1422 l0 -525 -480 -3 c-264 -1 -490 0 -502 3 l-23 5 0 525 0 525 503
-2 502 -3 0 -525z m-3504 -985 c32 -17 63 -69 55 -91 -9 -25 -45 -16 -61 15
-20 40 -69 56 -121 39 -34 -11 -39 -18 -42 -46 -3 -29 1 -34 32 -47 19 -8 42
-15 50 -15 9 0 40 -9 71 -21 80 -30 106 -90 69 -160 -17 -34 -82 -68 -130 -69
-82 0 -164 59 -164 118 0 35 44 30 60 -7 31 -77 190 -70 190 8 0 38 -10 44
-111 75 -102 31 -124 51 -124 112 0 34 6 49 26 70 45 44 134 53 200 19z m1113
5 c29 -11 81 -84 71 -99 -12 -21 -40 -11 -71 26 -27 32 -36 36 -76 36 -85 0
-128 -52 -128 -156 0 -65 22 -112 64 -138 57 -35 118 -17 154 46 12 19 28 35
35 35 57 0 19 -91 -53 -128 -79 -41 -173 -17 -223 56 -33 47 -46 144 -28 210
14 50 69 109 109 118 15 3 32 7 37 10 14 5 79 -4 109 -16z m397 -1 c28 -14 70
-71 67 -88 -6 -30 -45 -25 -64 9 -22 36 -67 52 -117 40 -49 -11 -57 -17 -78
-64 -40 -88 -13 -198 57 -231 34 -16 42 -17 79 -4 27 9 48 26 64 52 42 64 93
39 52 -26 -30 -48 -51 -64 -102 -78 -60 -16 -127 1 -168 43 -61 62 -77 201
-31 275 24 40 78 80 115 86 36 5 104 -2 126 -14z m520 9 c89 -30 128 -90 129
-197 0 -112 -45 -176 -142 -202 -84 -23 -180 26 -214 108 -19 44 -18 144 2
192 33 84 137 129 225 99z m1176 -9 c27 -10 51 -46 55 -79 5 -39 -36 -40 -56
-2 -18 35 -62 53 -111 45 -43 -7 -57 -23 -53 -60 3 -29 10 -32 130 -67 94 -27
131 -93 93 -166 -21 -41 -69 -64 -135 -64 -89 -1 -160 49 -160 113 0 34 45 28
60 -8 31 -76 190 -69 190 8 0 16 -6 33 -12 38 -13 11 -90 36 -142 48 -65 14
-102 88 -75 148 26 57 128 79 216 46z m-3917 -194 l0 -205 -30 0 -30 0 0 205
0 205 30 0 30 0 0 -205z m239 65 c52 -77 97 -140 102 -140 5 0 9 63 9 140 l0
140 25 0 25 0 0 -200 0 -200 -28 0 c-26 0 -38 15 -121 142 -69 106 -95 138
-102 127 -5 -8 -9 -71 -9 -141 l0 -128 -25 0 -25 0 0 200 0 200 28 0 c25 0 38
-15 121 -140z m861 118 c19 -13 37 -36 42 -53 10 -36 2 -93 -16 -117 -22 -30
-81 -48 -156 -48 l-70 0 0 -80 c0 -79 0 -80 -25 -80 l-25 0 0 200 0 200 109 0
c96 0 112 -3 141 -22z m395 -3 c0 -18 -8 -20 -110 -25 l-110 -5 0 -55 0 -55
103 -3 c101 -3 102 -3 102 -27 0 -25 0 -25 -105 -25 l-106 0 3 -62 3 -63 115
-5 c107 -5 115 -6 115 -25 0 -19 -7 -20 -145 -20 l-145 0 -3 198 -2 198 142
-3 c135 -3 143 -4 143 -23z m935 -180 l0 -205 -30 0 -30 0 0 205 0 205 30 0
30 0 0 -205z m660 59 l95 -146 5 143 5 144 25 0 25 0 0 -195 0 -195 -27 -3
c-26 -3 -35 9 -125 145 l-98 148 -5 -145 c-5 -141 -6 -145 -27 -148 l-23 -3 0
200 0 201 28 0 c24 0 38 -17 122 -146z m525 121 c0 -18 -8 -20 -110 -25 l-110
-5 0 -55 0 -55 85 -2 c47 -1 93 -2 103 -2 13 -1 17 -7 15 -23 -3 -22 -8 -23
-106 -26 l-103 -3 3 -62 3 -62 115 -5 c107 -5 115 -6 115 -25 0 -19 -7 -20
-145 -20 l-145 0 -3 198 -2 198 142 -3 c135 -3 143 -4 143 -23z m-647 -850
c60 -159 157 -413 260 -685 39 -102 80 -209 91 -238 12 -29 21 -57 21 -63 0
-6 -55 -9 -146 -7 l-147 3 -32 90 c-18 50 -79 214 -135 365 -56 151 -109 294
-117 318 -8 23 -18 42 -21 42 -4 0 -27 -55 -51 -123 -85 -237 -232 -632 -246
-664 l-15 -33 -139 0 c-77 0 -142 3 -144 8 -3 4 13 52 34 107 21 55 102 267
179 470 151 396 185 484 202 528 l11 27 170 -2 171 -3 54 -140z m-2173 113 c3
-13 4 -266 3 -563 l-3 -540 -150 0 -150 0 -3 550 c-1 303 0 556 3 563 3 9 43
12 149 12 143 0 146 0 151 -22z"/>
<path d="M5260 5190 l0 -140 215 0 215 0 0 140 0 140 -215 0 -215 0 0 -140z"/>
<path d="M5730 5190 l0 -140 208 2 207 3 0 135 0 135 -207 3 -208 2 0 -140z"/>
<path d="M5260 4865 l0 -145 215 0 215 0 0 145 0 145 -215 0 -215 0 0 -145z"/>
<path d="M5730 4865 l0 -145 208 2 207 3 3 119 c2 66 1 130 -3 143 l-5 23
-205 0 -205 0 0 -145z"/>
<path d="M5260 4540 l0 -140 215 0 215 0 0 140 0 140 -215 0 -215 0 0 -140z"/>
<path d="M5730 4540 l0 -140 208 2 207 3 0 135 0 135 -207 3 -208 2 0 -140z"/>
<path d="M4630 3835 c-66 -22 -102 -112 -80 -195 41 -151 227 -137 256 19 8
42 -18 131 -46 156 -27 24 -88 34 -130 20z"/>
<path d="M2895 3827 c-4 -8 -5 -39 -3 -68 l3 -54 72 1 c82 0 113 18 113 63 -1
50 -23 65 -105 69 -59 3 -76 1 -80 -11z"/>
<path d="M4223 1468 c-12 -29 -31 -82 -44 -118 -12 -36 -48 -139 -80 -229 -33
-90 -59 -166 -59 -167 0 -2 311 -4 690 -4 571 0 690 2 690 13 0 8 -21 72 -46
143 -25 71 -66 188 -91 259 -25 72 -50 136 -55 143 -8 9 -120 12 -497 12
l-487 0 -21 -52z"/>
</g>
</svg>
